<?xml version="1.0" encoding="UTF-8" standalone="no"?>
<svg
   version="1.1"
   id="Contours"
   x="0px"
   y="0px"
   width="2695.745117px"
   height="2695.745117px"
   viewBox="0.000000 -0.000001 2695.745117 2330.897217"
   enable-background="new 0 0 2695.745117 2695.745117"
   xml:space="preserve"
   stroke="black"
   fill="none"
   stroke-linecap="round"
   stroke-linejoin="round"
   sodipodi:docname="basiliskv2.svg"
   inkscape:export-filename="/home/jake/Downloads/basilisk.png"
   inkscape:export-xdpi="96"
   inkscape:export-ydpi="96"
   inkscape:version="1.1.2 (0a00cf5339, 2022-02-04)"
   xmlns:inkscape="http://www.inkscape.org/namespaces/inkscape"
   xmlns:sodipodi="http://sodipodi.sourceforge.net/DTD/sodipodi-0.dtd"
   xmlns="http://www.w3.org/2000/svg"
   xmlns:svg="http://www.w3.org/2000/svg"><defs
     id="defs962" /><sodipodi:namedview
     id="namedview960"
     pagecolor="#ffffff"
     bordercolor="#666666"
     borderopacity="1.0"
     inkscape:pageshadow="2"
     inkscape:pageopacity="0.0"
     inkscape:pagecheckerboard="0"
     showgrid="false"
     inkscape:zoom="0.21167994"
     inkscape:cx="535.47868"
     inkscape:cy="1772.6963"
     inkscape:window-width="1920"
     inkscape:window-height="1016"
     inkscape:window-x="0"
     inkscape:window-y="0"
     inkscape:window-maximized="1"
     inkscape:current-layer="Contours" /><path
     class="selected"
     fill="#000000"
     opacity="1"
     stroke="none"
     d="m 2646.8238,2606.727 c -2.1478,-0.044 -2.1553,-5.2898 -0.018,-5.0216 0,1.6312 0,3.2622 0,4.8932 z"
     id="path917"
     style="stroke-width:1.08658" /><path
     class="selected"
     fill="#000000"
     opacity="1"
     stroke="none"
     d="m 2639.1344,2696.7457 c -0.5801,-3.8041 0.3838,-8.6154 3.338,-9.7104 0.4188,3.7633 -0.8607,7.753 -3.2384,10.0979 z"
     id="path919"
     style="stroke-width:1.08658" /><path
     class="selected"
     fill="#000000"
     opacity="1"
     stroke="none"
     d="m 2636.1459,2640.7182 c -0.9626,-1.2146 -1.9251,-2.4291 -2.8876,-3.6434 0.6266,-1.4347 2.4142,-1.7569 3.3358,-0.6014 0.922,1.1554 0.6719,3.4042 -0.4666,4.1973 z"
     id="path921"
     style="stroke-width:1.08658" /><path
     class="selected"
     fill="#000000"
     opacity="1"
     stroke="none"
     d="m 2403.6743,2657.4415 c 0.901,0.3774 1.8021,0.7551 2.703,1.1323 -0.2123,2.3945 -3.946,1.2683 -3.2715,-0.9868 z"
     id="path923"
     style="stroke-width:1.08658" /><path
     class="selected"
     fill="#000000"
     opacity="1"
     stroke="none"
     d="m 2615.8092,2688.2553 c 0.8144,-1.6249 3.0251,-1.635 3.8487,-0.016 -0.8211,1.6211 -3.0356,1.6131 -3.8492,-0.014 z"
     id="path925"
     style="stroke-width:1.08658" /><path
     class="selected"
     fill="#000000"
     opacity="1"
     stroke="none"
     d="m 2507.6561,2683.5823 c -1.0353,1.3846 -3.0417,-0.9736 -2.2872,-2.6201 0.7547,-1.6465 2.8793,-1.4782 3.8856,-0.061 -0.6575,0.8207 -1.315,1.6415 -1.9723,2.4622 z"
     id="path927"
     style="stroke-width:1.08658" /><path
     class="selected"
     fill="#000000"
     opacity="1"
     stroke="none"
     d="m 2638.9361,2696.8181 c 0.4754,1.6225 0.1681,3.5654 -0.7647,4.8357 -1.6568,-1.0553 -0.9954,-4.9366 0.8597,-5.0457 z"
     id="path929"
     style="stroke-width:1.08658" /><path
     class="selected"
     fill="#000000"
     opacity="1"
     stroke="none"
     d="m 2623.2465,2570.364 c -0.2208,0.8594 -0.4416,1.7189 -0.6624,2.5784 -0.218,-0.8342 -0.4365,-1.6684 -0.6544,-2.5026 z"
     id="path931"
     style="stroke-width:1.08658" /><path
     class="selected"
     fill="#000000"
     opacity="1"
     stroke="none"
     d="m 2646.6939,2628.4028 c -0.8938,0.769 -2.1113,-1.3007 -1.2489,-2.1246 0.8621,-0.824 2.0937,1.3097 1.1894,2.0593 z"
     id="path933"
     style="stroke-width:1.08658" /><path
     class="selected"
     fill="#000000"
     opacity="1"
     stroke="none"
     d="m 2034.3785,2589.6344 c -0.2208,0.7249 -0.4415,1.4499 -0.6625,2.1749 -0.2181,-0.7036 -0.4363,-1.4074 -0.6545,-2.1109 z"
     id="path935"
     style="stroke-width:0.997922" /><path
     class="selected"
     fill="#000000"
     opacity="1"
     stroke="none"
     d="m 2472.0972,2616.6678 c -0.2207,0.8595 -0.4416,1.719 -0.6625,2.5784 -0.2179,-0.8342 -0.4361,-1.6684 -0.6543,-2.5026 z"
     id="path937"
     style="stroke-width:1.08658" /><path
     class="selected"
     fill="#000000"
     opacity="1"
     stroke="none"
     d="m 2602.5364,2689.1371 c 0.2207,-0.8596 0.4416,-1.719 0.6624,-2.5783 0.2183,0.8341 0.4363,1.6682 0.6545,2.5025 z"
     id="path939"
     style="stroke-width:1.08658" /><path
     class="selected"
     fill="#000000"
     opacity="1"
     stroke="none"
     d="m 2093.1186,2609.6492 c 0.2208,-0.725 0.4416,-1.45 0.6623,-2.1749 0.2183,0.7036 0.4363,1.4073 0.6546,2.111 z"
     id="path941"
     style="stroke-width:0.997922" /><path
     class="selected"
     fill="#000000"
     opacity="1"
     stroke="none"
     d="m 2522.4805,2687.3422 c -0.221,0.8594 -0.4417,1.719 -0.6624,2.5784 -0.2184,-0.8342 -0.4364,-1.6685 -0.6545,-2.5026 z"
     id="path943"
     style="stroke-width:1.08658" /><path
     class="selected"
     fill="#000000"
     opacity="1"
     stroke="none"
     d="m 1030.2362,1924.2272 c -0.046,0.7764 -0.091,1.5527 -0.1355,2.3291 -0.899,0.2957 -1.3812,-1.8311 -0.4934,-2.1763 z"
     id="path945"
     style="stroke-width:1.08658" /><path
     class="selected"
     fill="#000000"
     opacity="1"
     stroke="none"
     d="m 1763.2333,2383.6202 c -0.596,0.9591 -2.2927,-0.3471 -1.6375,-1.2619 0.6553,-0.9146 2.3007,0.3768 1.6895,1.325 z"
     id="path947"
     style="stroke-width:0.997922" /><path
     class="selected"
     fill="#000000"
     opacity="1"
     stroke="none"
     d="m 1539.2176,2004.683 c -81.0937,103.1233 -59.2702,297.2337 -163.6304,358.9583 -81.9463,48.4678 -181.7971,-30.1089 -180.3372,-132.6004 0.7436,-52.1915 -6.0262,-125.7786 -35.1982,-174.5015 -38.1605,-63.7356 -88.7587,-97.1921 -142.9901,-108.5445 -95.68889,-20.0311 -206.3994,33.4726 -302.44104,50.6269 -101.78825,18.181 -205.55083,18.7952 -307.47066,1.82 -96.83625,-16.1287 -186.08831,-65.02 -263.02059,-140.7201 C 71.985793,1788.7336 59.105392,1563.9407 59.105392,1563.9407 188.48997,1433.1558 190.4726,1039.8105 49.817199,887.55471 40.166471,877.10804 37.519865,912.18869 61.133125,754.37442 64.35371,732.85029 101.47421,647.97127 101.47421,647.97127 c 28.13946,-60.24188 86.2634,-149.00293 138.12348,-179.0115 107.3869,-62.13889 165.75563,-57.06831 270.72673,-56.41006 l 497.88318,3.12216 c 26.7384,0.16766 50.2776,0.17536 75.358,-11.48232 80.1141,-37.23795 92.831,-166.3895 100.781,-273.33818 7.9501,-106.948693 38.8917,-242.8967 121.3332,-270.97284 56.2684,-19.16259 112.4874,7.44293 150.9986,75.698784 37.9755,67.3057802 32.9527,211.738626 45.0957,283.443676 11.7869,69.60464 20.668,81.49647 47.8763,145.29825 21.3016,49.95101 68.8226,62.56913 113.7749,58.47622 163.6755,-14.90274 358.8642,-20.97636 522.9532,-18.19866 81.6443,1.3821 174.7842,19.91347 246.4207,69.19024 75.3033,51.7992 198.5985,182.98416 187.6488,364.52814 0,0 -2.9637,2.7724 -8.6259,10.02572 -138.396,177.2837 -121.8188,520.955 -1.3186,679.4208 28.9318,38.0473 28.5213,27.4463 26.0006,43.6043 -3.2418,20.7802 -4.2633,24.3851 -7.0558,37.5703 -30.4125,143.5997 -64.4828,177.761 -153.1313,276.0182 -88.6485,98.2569 -212.8759,180.7842 -329.6876,158.368 -100.5723,-19.3001 -139.1754,-13.2275 -234.6207,-57.5216 -95.4454,-44.294 -301.2526,-72.0902 -372.7911,18.8821 m -313.3918,252.8718 c 1.9943,68.6136 80.4744,107.7641 130.5104,80.2993 50.0361,-27.4649 67.7989,-110.5138 87.0944,-174.7417 19.2957,-64.228 31.6585,-125.8861 67.2859,-177.9099 58.6224,-85.6013 178.6998,-93.4775 266.5698,-70.0044 87.87,23.4727 132.2192,24.0646 215.7393,65.6596 83.5201,41.5948 213.9552,49.6891 298.1363,10.2582 46.0118,-21.5524 93.3633,-45.0328 131.2364,-84.3299 54.3758,-56.42 130.3478,-139.4983 164.4307,-217.1019 34.083,-77.6038 37.6936,-89.6174 -5.2802,-159.8939 -119.1582,-194.8637 -113.9976,-503.7547 -8.8374,-672.67895 67.8782,-109.03626 -70.6188,-298.51163 -168.7142,-361.41275 -98.0958,-62.90113 -213.7261,-58.32476 -323.757,-53.05851 l -456.1824,21.83351 c -56.2772,2.69352 -100.8173,-81.32916 -121.7323,-147.09084 -20.9151,-65.76167 -16.5927,-132.46188 -27.0156,-202.0654 -5.9073,-39.449406 -3.897,-87.840973 -36.7337,-156.695012 -25.7147,-53.920225 -42.6,-49.89068 -63.4989,-65.725188 -48.2394,-36.55015 -135.1693,48.49802 -145.1161,118.211557 l -32.1703,225.467833 c -10.7566,75.38779 -26.9359,157.01759 -79.4953,195.70955 -35.6203,26.22206 -75.3936,26.10716 -116.6606,25.13776 L 561.39414,447.08207 c -92.56117,-2.17435 -187.9709,-3.47924 -274.01048,39.49687 -117.50699,58.69383 -207.78184,204.17688 -221.914236,362.1897 -2.814986,31.47416 19.464633,49.48248 35.977216,73.39695 118.69403,171.89911 69.47912,557.08261 -11.575053,645.84101 -30.103674,32.9651 11.853483,202.5695 64.841403,273.3535 52.98792,70.7839 165.51201,113.9117 241.59288,131.1219 182.05637,41.1835 326.1293,9.5431 509.50531,-43.7756 71.0473,-20.6578 157.99562,0.536 222.04792,60.2886 71.6729,66.8615 98.7358,177.0385 90.2482,231.3577 M 939.51237,1923.8541 c -1.01916,-2.6055 -4.38139,-2.9886 -5.75635,-0.6556 1.4315,1.1058 -3.07568,9.291 -1.44521,8.7821 m 641.88879,4.2514 c 0.8342,-0.044 0.861,-1.9994 0.029,-2.0796 -0.8365,0.076 -0.8115,2.0431 0.025,2.0844 z"
     id="path951"
     sodipodi:nodetypes="csssssssssssssssssssssssssssssssccsssssssssssssssssssssssssssssscccccccc"
     style="stroke-width:1.08658" /><path
     class="selected"
     fill="#000000"
     opacity="1"
     stroke="none"
     d="m 912.38895,2182.9585 c 10.30256,11.4544 12.36771,28.5611 13.9053,44.3997 l 4.33104,44.6144 1.25545,12.9328 c 1.67591,17.2639 3.35362,34.6423 2.09697,51.9474 -1.13275,15.601 -4.66633,30.9981 -10.41376,45.3781 -5.01502,12.5475 -8.37114,25.8995 -14.59437,37.8067 -6.22326,11.9071 -16.14021,22.62 -28.67696,24.9046 -6.53913,1.1918 -13.25636,0.01 -19.8649,0.6157 -13.94664,4.2296 -38.94674,2.2564 -61.24802,-0.4453 -16.74442,-1.9516 -33.96255,-1.7808 -49.8787,-7.6968 -7.02942,-2.6128 -13.65489,-6.3696 -19.92615,-10.6654 -21.05924,-14.4255 -38.31213,-35.1835 -49.27414,-59.2853 -8.93195,-19.6381 -13.66871,-41.1836 -16.74637,-62.7874 -3.60719,-25.321 -4.95303,-51.6923 2.19951,-76.1292 7.15255,-24.4369 24.1578,-46.7383 47.16343,-53.5143 3.1067,-0.9151 3.00358,-1.9009 6.05552,-3.0082 4.99325,-1.8117 14.45324,-6.3076 14.45324,-6.3076 0,0 32.23164,-4.9451 39.50228,-4.5221 26.11939,1.52 39.40635,-0.1789 54.33459,-0.3424 0,0 15.33041,-4.1012 30.28459,-3.6412 7.35334,0.226 22.3205,5.667 29.00409,8.9671 l 13.94657,6.8861 c 4.61419,2.2782 8.56262,5.9701 12.09079,9.8926 m -147.28967,221.8591 c 7.07059,1.7503 13.62362,5.316 20.49768,7.8107 14.13979,5.1314 29.71205,5.6091 44.10155,1.3527 14.10563,-4.1725 29.85961,-1.538 42.94149,-8.5737 12.28388,-6.6065 19.68071,-20.4875 24.33151,-34.3686 5.83373,-17.412 8.47261,-36.0506 7.72143,-54.5373 -0.28479,-7.0091 -1.05021,-13.984 -1.81507,-20.9513 l -7.51494,-68.457 c -0.55759,-5.0796 -1.18161,-10.3626 -3.78387,-14.6466 -4.32299,-7.1168 -12.82529,-9.5932 -20.62029,-11.0547 -17.05168,-3.1964 -34.46077,-4.1885 -51.73172,-2.9479 -13.54438,0.9728 -26.96777,3.3092 -40.36739,5.642 l -43.78626,7.6244 c -8.96407,1.5607 -18.37862,3.3314 -25.42558,9.4819 -8.48494,7.4055 -11.75,19.5293 -14.56178,30.8754 -1.6103,6.4977 -3.23032,13.0637 -3.44038,19.7839 -0.26635,8.5206 1.74142,16.9129 3.73395,25.1657 l 11.28205,46.7284 c 7.17165,29.7037 30.59069,54.1785 58.43762,61.072 z"
     id="path953"
     sodipodi:nodetypes="cscsssssccssssssscscssscsssssssssssssssssss"
     style="stroke-width:1.00401" /><path
     class="selected"
     fill="#000000"
     opacity="1"
     stroke="none"
     d="m 1976.4728,2410.4581 c 10.3027,-11.3161 12.3678,-28.2162 13.9054,-43.8635 l 4.3309,-44.0756 1.2554,-12.7766 c 1.676,-17.0553 3.3538,-34.2239 2.097,-51.3199 -1.1328,-15.4127 -4.6661,-30.6239 -10.4136,-44.8302 -5.0151,-12.3959 -8.3711,-25.5867 -14.5943,-37.35 -6.2234,-11.7633 -16.1404,-22.3469 -28.677,-24.6038 -6.5392,-1.1772 -13.2564,-0.01 -19.865,-0.6082 -13.9465,-4.1787 -38.9467,-2.2292 -61.248,0.4398 -16.7445,1.9281 -33.9625,1.7594 -49.8787,7.6038 -7.0294,2.5813 -13.6548,6.2928 -19.9259,10.5367 -21.0595,14.2511 -38.3122,34.7587 -49.2744,58.5692 -8.932,19.4011 -13.6687,40.6863 -16.7464,62.0292 -3.6071,25.0151 -4.9527,51.0679 2.1994,75.2097 7.1527,24.1418 24.1579,46.1737 47.1637,52.868 3.1066,0.9039 3.0035,1.8779 6.0555,2.972 4.9932,1.7896 14.4533,6.2311 14.4533,6.2311 0,0 32.2316,4.8856 39.5023,4.4677 26.1193,-1.5017 39.4063,0.1766 54.3346,0.3382 0,0 15.3303,4.0516 30.2844,3.5974 7.3534,-0.2234 22.3205,-5.5988 29.004,-8.8589 l 13.9467,-6.803 c 4.6141,-2.2507 8.5628,-5.8981 12.0907,-9.7731 m -147.2894,-219.1797 c 7.0704,-1.7291 13.6234,-5.2519 20.4976,-7.7163 14.1397,-5.0694 29.7121,-5.5413 44.1014,-1.3364 14.1055,4.1222 29.8597,1.5195 42.9416,8.47 12.2838,6.5269 19.6807,20.2403 24.3315,33.9539 5.8337,17.2016 8.4726,35.615 7.7214,53.8785 -0.2848,6.9243 -1.0503,13.8149 -1.815,20.6981 l -7.515,67.6303 c -0.5575,5.0181 -1.1816,10.2375 -3.784,14.4697 -4.3229,7.0306 -12.8252,9.4776 -20.6202,10.9211 -17.0518,3.1579 -34.4607,4.138 -51.7317,2.9123 -13.5444,-0.961 -26.9678,-3.269 -40.3674,-5.574 l -43.7861,-7.532 c -8.9643,-1.5419 -18.3787,-3.2911 -25.4258,-9.3674 -8.4849,-7.316 -11.75,-19.2934 -14.5617,-30.5026 -1.6103,-6.4192 -3.2303,-12.9058 -3.4403,-19.545 -0.2666,-8.4177 1.7413,-16.7085 3.734,-24.8616 l 11.2819,-46.1641 c 7.1717,-29.345 30.5908,-53.5242 58.4378,-60.3345 z"
     id="path953-6"
     sodipodi:nodetypes="cscsssssccssssssscscssscsssssssssssssssssss"
     style="stroke-width:0.997922" /><path
     class="selected"
     fill="#000000"
     opacity="1"
     stroke="none"
     d="m 2175.9253,1734.5671 c 50.6,-0.8875 94.8461,-43.1276 116.4443,-100.6819 21.5982,-57.5545 25.4266,-122.747 28.9149,-186.2377 3.9396,-71.7058 7.8795,-143.4116 11.8192,-215.1174 4.1304,-75.1759 8.2556,-150.8097 1.9543,-225.7469 -6.3016,-74.93741 -23.6503,-149.89736 -58.8741,-210.85677 -49.3032,-85.32577 -129.5961,-135.80052 -211.6778,-157.45725 -82.0817,-21.65672 -166.9193,-17.46316 -250.6926,-12.44009 -38.4111,2.30312 -78.0749,5.15703 -112.5035,26.69984 -39.7326,24.86159 -67.8626,71.93718 -88.587,121.28964 -66.287,157.85402 -69.0738,344.20813 -70.3593,522.71573 -0.7019,97.4396 -0.9144,199.2193 33.8183,286.3241 37.766,94.7107 147.6135,180.8608 229.209,171.707 28.1479,-3.1578 162.8322,15.6951 232.5684,7.5834 46.6199,-5.4227 117.316,-24.0945 137.9659,-27.7817 m 82.6604,-115.1707 c -12.19,28.3683 -25.9111,58.5019 -49.1442,72.1426 -21.8974,12.8568 -49.2451,18.9834 -74.5084,22.1531 -44.6316,5.5997 -64.784,21.1369 -110.3286,18.2013 -20.5157,-1.3224 -60.9141,0.5176 -81.1092,-4.2156 -33.3525,-7.8172 -96.2326,1.6824 -143.196,-0.6386 -46.9634,-2.3208 -91.7733,-27.1089 -131.0002,-59.6671 -36.1034,-29.9659 -60.9338,-78.0746 -75.3013,-129.3877 -14.3675,-51.3133 -19.0958,-106.0522 -21.7433,-160.3519 -5.7204,-117.3263 -2.182,-235.3636 10.5466,-351.8154 7.8551,-71.86631 19.5368,-144.33863 46.6561,-208.36322 10.1752,-24.02263 22.4055,-46.56145 34.7705,-68.90032 9.9286,-17.93695 20.2388,-36.13808 34.3932,-48.81781 20.0762,-17.98499 45.5567,-22.88253 70.0505,-26.35363 60.0554,-8.51062 120.6022,-11.52684 181.0044,-9.01707 55.5916,2.30991 111.5821,9.43427 164.4228,31.27722 52.8406,21.84295 102.6805,59.33238 137.0877,114.29453 34.7765,55.55238 51.9991,125.89949 58.0672,196.1894 6.0679,70.29 1.6843,141.2674 -2.7033,211.7549 -5.5227,88.7226 -11.0454,177.4454 -16.5682,266.1679 -1.5246,24.4975 -3.0821,49.2175 -8.7236,72.7432 -5.2743,21.9939 -13.9884,42.3941 -22.6727,62.6042 z"
     id="path957"
     sodipodi:nodetypes="cssssssssssssscssssssssssssssssssssss"
     style="stroke-width:1.08658" /><path
     class="selected"
     fill="#000000"
     opacity="1"
     stroke="none"
     d="m 501.18323,1749.1894 c -50.59989,-0.8876 -94.84602,-43.1277 -116.44426,-100.6821 -21.59825,-57.5543 -25.42657,-122.7468 -28.91493,-186.2375 -3.93965,-71.7058 -7.87942,-143.4117 -11.8192,-215.1174 -4.13033,-75.1759 -8.25564,-150.8098 -1.95416,-225.7469 6.30145,-74.93741 23.65007,-149.89735 58.87394,-210.85676 49.30322,-85.32583 129.59609,-135.80058 211.67784,-157.45728 82.08187,-21.65667 166.91919,-17.46312 250.69276,-12.44014 38.41108,2.30314 78.07471,5.15704 112.50337,26.6999 39.73251,24.86154 67.86261,71.93722 88.58701,121.28958 66.2871,157.85399 69.0738,344.2082 70.3594,522.7156 0.7016,97.4399 0.9144,199.2195 -33.8185,286.3242 -37.7658,94.7108 -147.61332,180.8608 -229.20868,171.7071 -28.14826,-3.1579 -162.83234,15.6951 -232.56862,7.5835 -46.61993,-5.4229 -117.31607,-24.0946 -137.96597,-27.7818 m -82.66037,-115.1708 c 12.18998,28.3683 25.91113,58.5019 49.14402,72.1427 21.89752,12.8567 49.24527,18.9834 74.5085,22.1531 44.63164,5.5997 64.78399,21.1369 110.32855,18.2014 20.51587,-1.3224 60.91428,0.5174 81.10933,-4.2159 33.35254,-7.8169 96.23253,1.6825 143.19604,-0.6384 46.96343,-2.3209 91.77331,-27.1088 131.0002,-59.6672 36.1034,-29.966 60.9337,-78.0744 75.3012,-129.3877 14.3676,-51.313 19.0959,-106.0521 21.7433,-160.3518 5.7206,-117.3262 2.1822,-235.3637 -10.5465,-351.8153 -7.8551,-71.86641 -19.5367,-144.33875 -46.656,-208.36335 -10.1754,-24.02258 -22.4055,-46.56147 -34.7706,-68.90028 -9.9286,-17.93703 -20.23891,-36.1381 -34.39315,-48.81781 -20.07639,-17.98503 -45.55672,-22.8825 -70.05067,-26.35372 -60.05516,-8.51052 -120.60204,-11.52674 -181.00425,-9.01694 -55.59169,2.30982 -111.5821,9.43417 -164.42289,31.27715 -52.84069,21.84301 -102.68039,59.33232 -137.08757,114.29452 -34.77663,55.55233 -51.99929,125.89942 -58.06716,196.18953 -6.06794,70.2898 -1.68444,141.2673 2.70315,211.7547 5.52278,88.7228 11.04543,177.4454 16.5681,266.168 1.52486,24.4974 3.08209,49.2175 8.72374,72.7432 5.27431,21.9939 13.98836,42.394 22.67266,62.6041 z"
     id="path957-3"
     sodipodi:nodetypes="cssssssssssssscssssssssssssssssssssss"
     style="stroke-width:1.08658" /><path
     style="fill:#000000;stroke:#000000;stroke-width:12.7209;stroke-linejoin:bevel;stroke-miterlimit:4;stroke-dasharray:none;stroke-opacity:1"
     d="m 775.16871,2425.4159 c -30.93145,-12.5581 -53.23223,-32.4131 -64.00341,-56.9839 -3.49861,-7.9809 -10.25958,-34.113 -15.02437,-58.0712 -10.05697,-50.5684 -5.20564,-87.0008 13.49959,-101.3798 17.39226,-13.3696 126.04976,-29.5804 157.1203,-23.4407 33.97813,6.714 37.71382,16.0614 41.93825,104.9377 2.9421,61.8978 2.23749,71.9108 -6.75793,96.0347 -11.81598,31.6878 -17.63631,35.9856 -60.62674,44.7676 -38.73031,7.9118 -30.39384,8.6508 -66.14569,-5.8644 z"
     id="path20245" /><path
     style="fill:#000000;stroke:#000000;stroke-width:52.75;stroke-linejoin:bevel;stroke-miterlimit:4;stroke-dasharray:none;stroke-opacity:1"
     d="m 1827.6098,2383.4279 c -52.8757,-9.9964 -61.4701,-16.0001 -67.0284,-46.8236 -3.8957,-21.6017 4.5102,-64.054 19.1119,-96.5224 12.7978,-28.457 27.7851,-40.1764 66.5934,-52.0728 21.8286,-6.6913 30.6924,-7.1056 54.801,-2.5601 37.8475,7.136 44.1818,11.2097 54.5279,35.0676 13.7026,31.5982 9.3009,144.9584 -6.2683,161.4321 -10.1718,10.7628 -68.8591,11.476 -121.7375,1.4792 z"
     id="path27200" /><path
     style="fill:#000000;stroke:#000000;stroke-width:57.6393;stroke-linejoin:bevel;stroke-miterlimit:4;stroke-dasharray:none;stroke-opacity:1"
     d="m 1282.2379,2334.7327 c -24.2141,-10.7279 -47.3405,-40.9278 -52.8812,-69.0555 -2.4137,-12.2528 -6.2432,-44.2906 -8.5098,-71.1957 -5.2157,-61.9048 -17.5114,-102.1954 -45.8003,-150.0747 -42.8669,-72.5537 -114.5762,-117.8144 -195.28658,-123.2583 -41.52933,-2.8012 -53.84479,-0.9196 -132.70303,20.2744 -156.30689,42.0093 -258.39392,54.1525 -359.15057,42.7214 -142.37395,-16.1529 -260.43326,-65.957 -319.99422,-134.9919 -44.49877,-51.5769 -83.418183,-160.0666 -83.549333,-232.8977 -0.0538,-29.854 1.66542,-35.997 16.244273,-58.0436 53.97528,-81.6232 84.47969,-261.5725 70.13555,-413.7386 C 160.92169,1040.289 138.96816,971.98575 94.953097,908.67099 65.963403,866.96982 64.067074,855.57961 76.16422,795.81521 93.773767,708.81737 143.25976,613.3122 200.51495,555.8253 284.62194,471.37799 377.51341,444.59382 567.44902,450.02415 c 323.13754,9.23861 474.71418,10.98158 500.35338,5.75343 55.6969,-11.3573 93.4866,-52.79997 113.5758,-124.55486 5.1443,-18.37403 19.0679,-99.79132 30.9416,-180.9273 11.8737,-81.135976 25.13,-156.9604188 29.458,-168.498743 12.174,-32.453817 53.2414,-76.498514 82.0662,-88.015957 23.0526,-9.21092 25.9802,-9.23525 44.4549,-0.36921 64.6248,31.013173 89.3323,85.937386 105.0659,233.55846 17.8391,167.37536 17.9305,167.91575 36.6613,216.30331 22.5471,58.24643 53.0805,101.83496 80.4951,114.91264 19.3146,9.21369 35.7451,8.99914 307.0384,-4.00829 309.6931,-14.8486 362.2152,-13.56192 432.1199,10.58606 91.156,31.48911 173.5733,108.9081 225.6544,211.96936 39.1148,77.40213 41.5203,128.55715 8.9007,189.2622 -27.2421,50.69744 -48.731,111.767 -60.4548,171.80665 -13.3597,68.4193 -14.1922,205.6584 -1.6863,278.0493 12.1747,70.4737 38.0803,144.1603 73.4098,208.8092 16.9474,31.0116 29.2939,54.2701 27.0153,61.8523 -13.801,45.9286 -53.4379,179.6248 -147.5982,280.5988 -53.6305,57.5114 -81.3675,79.1634 -136.2174,106.334 -109.7554,54.3687 -208.5224,53.6243 -341.0173,-2.5708 -34.5711,-14.6625 -96.0448,-34.138 -146.555,-46.4304 -187.0389,-45.5178 -284.7995,-19.5605 -340.6521,90.4495 -7.7755,15.315 -27.1565,71.7585 -43.069,125.4302 -15.9123,53.6717 -33.1635,108.0764 -38.3363,120.8994 -28.6291,70.9721 -73.6581,97.0692 -126.8354,73.5093 z M 878.84788,1772.0168 c 91.64235,-4.1155 189.17082,-80.4982 225.29692,-176.4485 24.3342,-64.6316 29.2305,-103.7753 31.3649,-250.7445 3.8661,-266.1914 -15.1653,-421.92621 -67.431,-551.79276 C 1035.6314,712.40799 993.75069,665.38894 939.23664,648.38116 896.88658,635.16839 695.92669,632.46792 639.19712,644.34928 472.94998,679.16787 377.33708,784.71393 346.0332,967.96989 c -10.762,63.00171 -9.80994,202.04781 2.84041,414.83111 12.81026,215.4731 21.50635,261.4063 59.44166,313.9742 25.91706,35.9138 49.72077,47.4909 131.74223,64.0731 40.29426,8.1463 78.41386,16.009 84.71019,17.4729 9.99929,2.3245 126.07181,-0.5553 254.08019,-6.3044 z m 1248.55072,-23.6379 c 93.5844,-19.1806 110.5202,-26.7563 137.6414,-61.5682 37.8047,-48.5248 49.5968,-99.4727 59.176,-255.6692 23.9466,-390.4627 20.4142,-477.90501 -23.8295,-589.87677 -40.1175,-101.52862 -124.3609,-175.22742 -235.8508,-206.32952 -23.859,-6.65592 -65.1448,-10.41284 -135.2117,-12.30396 -113.3562,-3.05954 -180.0978,3.79493 -219.7147,22.56489 -70.2178,33.26839 -130.383,168.37652 -154.6021,347.17851 -17.159,126.67765 -19.5454,420.01655 -4.1286,507.51415 3.903,22.1511 14.3451,58.6969 23.2047,81.2127 25.6159,65.1004 88.2171,132.3226 149.6921,160.7424 22.7307,10.5084 151.6324,22.5456 253.1411,23.6389 51.3469,0.5534 80.4974,-2.7601 150.4821,-17.1039 z"
     id="path27239"
     sodipodi:nodetypes="sssssssssssssssssssssssssssssssssssssssssssssssssssssssssssssssss" /></svg>
